<?xml version="1.0" encoding="utf-8"?>
<!-- Generator: Adobe Illustrator 27.6.1, SVG Export Plug-In . SVG Version: 6.00 Build 0)  -->
<svg version="1.1" id="AAFR-logo_xA0_Image_00000035513637726112637390000006361080614381455769_"
	 xmlns="http://www.w3.org/2000/svg" xmlns:xlink="http://www.w3.org/1999/xlink" x="0px" y="0px" viewBox="0 0 1801 1879"
	 style="enable-background:new 0 0 1801 1879;" xml:space="preserve">
<style type="text/css">
	.st0{fill:#FFFFFF;}
	.st1{fill:#0170C1;}
	.st2{fill:#8DD6FC;}
	.st3{fill:#00BFF7;}
	.st4{fill:#010101;}
	.st5{fill:#030303;}
	.st6{fill:#FEFEFE;}
	.st7{fill:#F0FBFF;}
	.st8{fill:#8F8F8F;}
	.st9{fill:#404040;}
	.st10{fill:#E2E2E2;}
	.st11{fill:#222222;}
	.st12{fill:#CFCFCF;}
	.st13{fill:#5C5C5C;}
	.st14{fill:#FDFDFD;}
	.st15{fill:#C0C0C0;}
</style>
<g>
	<g>
		<path d="M1801,1879c-600.32,0-1200.59,0-1801,0C0,1252.72,0,626.43,0,0c600.18,0,1200.52,0,1801,0
			C1801,626.14,1801,1252.42,1801,1879z M19.97,1858.71c587.29,0,1174.13,0,1760.89,0c0-613.07,0-1225.85,0-1838.57
			c-587.12,0-1173.95,0-1760.89,0C19.97,633.09,19.97,1245.76,19.97,1858.71z"/>
		<path class="st0" d="M19.97,1858.71c0-612.96,0-1225.62,0-1838.57c586.94,0,1173.78,0,1760.89,0c0,612.72,0,1225.5,0,1838.57
			C1194.09,1858.71,607.26,1858.71,19.97,1858.71z M1140.21,258.87c0.61-1.34,1.75-2.67,1.76-4.01c0.09-56.33,0.09-112.66,0-168.99
			c0-1.34-1.14-2.68-1.76-4.01c-1.51-0.33-3.01-0.95-4.52-0.96c-13.82-0.07-27.65-0.04-41.47-0.04c-2.6,0-5.19,0-7.72,0
			c0,60.01,0,119.37,0,179c17.59,0,34.89,0.01,52.19-0.04C1139.19,259.82,1139.7,259.2,1140.21,258.87z M459.95,81.04
			c-0.25,0.28-0.51,0.56-0.76,0.83c0,14.28,0,28.55,0,43.38c18.44,0,36.49,0,54.88,0c0,45.15,0,89.75,0,134.35
			c17.93,0,35.5,0,53.49,0c0-44.87,0-89.48,0-134.54c18.32,0,36.24,0,54.21,0c0-14.99,0-29.52,0-44.2
			c-40.51,0-80.66-0.01-120.82,0.01C487.27,80.87,473.61,80.98,459.95,81.04z M1006.83,258.86c0-44.56,0-89.12,0-134.14
			c18.83,0,36.72,0,54.53,0c0-14.87,0-29.27,0-43.55c-54.44,0-108.53,0-162.46,0c0,14.73,0,29.14,0,44.02c18.21,0,36.12,0,54.38,0
			c0,45.06,0,89.67,0,134.53c17.81,0,35.27,0,52.72,0C1006.28,259.43,1006.55,259.15,1006.83,258.86z M1600.13,1715.83
			c11.61,0,23.22,0,35.3,0c0-23.2,0-46.09,0-69.05c10.56,0,20.64,0,31.36,0c0,27.14,0,54,0,80.79c13.07,0,25.51,0,38.03,0
			c0-45.63,0-91,0-136.31c-59.69,0-119.08,0-178.4,0c0,18.5,0,36.72,0,55.38c24.36,0,48.42,0,72.9,0c0,23.08,0,45.71,0,68.34
			C1599.59,1715.26,1599.86,1715.54,1600.13,1715.83z M330.92,1807.83c16.23,0,32.45,0,49.07,0c0-11.98-0.02-23.72,0.01-35.47
			c0.02-11.79,0.09-23.57,0.14-35.36c0.26-0.28,0.53-0.56,0.79-0.84c10.88-2.02,17.83,2.95,22.29,12.45c1.13,2.4,2.48,4.7,3.64,7.08
			c6.68,13.72,14.05,27.17,19.72,41.3c3.61,8.99,8.47,11.85,17.95,11.24c14.36-0.92,28.81-0.24,43.41-0.24
			c-0.15-0.96-0.12-1.47-0.31-1.89c-7.73-16.71-15.02-33.65-23.4-50.03c-5.93-11.59-12.73-23.05-27.08-26.49
			c0.47-0.56,0.64-0.96,0.91-1.05c1.09-0.35,2.21-0.6,3.31-0.9c9.06-2.5,16.66-7.4,22.5-14.68c12.97-16.2,13.79-34.59,8.33-53.56
			c-3.66-12.7-12.04-22.16-24.8-25.96c-8.83-2.63-18.33-4.02-27.55-4.18c-29.63-0.49-59.28-0.14-88.92-0.11
			c-0.27,0.28-0.53,0.57-0.8,0.85c-0.05,25-0.14,49.99-0.13,74.99c0.01,34,0.08,67.99,0.13,101.99
			C330.39,1807.26,330.65,1807.55,330.92,1807.83z M1216.79,1806.98c0.05-31.66,0.14-63.33,0.14-94.99
			c0-27.33-0.09-54.66-0.14-81.99c-0.25-0.28-0.5-0.56-0.75-0.83c-15.23,0-30.46,0-46.05,0c0,15.99,0.02,31.73-0.01,47.46
			c-0.02,15.78-0.09,31.56-0.14,47.34c-0.5,0.39-1,0.78-1.5,1.17c-0.48-0.67-1-1.33-1.43-2.03c-18.64-30.33-37.32-60.64-55.83-91.05
			c-1.41-2.31-2.71-3.17-5.35-3.14c-12.99,0.13-25.98,0.05-38.97,0.07c-1.27,0-2.54,0.18-3.58,0.26c0,59.76,0,119.13,0,178.53
			c15.55,0,30.8,0,46.51,0c0-1.99,0-3.79,0-5.59c0.07-30.3,0.13-60.61,0.2-90.91c0.39,0.22,0.78,0.45,1.17,0.67
			c9.66,16.14,19.25,32.33,29,48.42c8.51,14.04,17.17,28,25.88,41.92c1.49,2.39,1.99,5.82,6.2,5.76
			c14.63-0.21,29.26-0.18,43.89-0.24C1216.28,1807.53,1216.54,1807.26,1216.79,1806.98z M1564.08,990.67
			c7.11,3.76,14.63,5.86,22.52,7.73c6.77,1.6,13.38,2.84,20.24,3.16c16.76,0.79,33.55,0.44,49.15-6.28
			c8.84-3.81,17.54-8.81,24.9-14.97c13.12-10.97,20.62-25.99,23.96-42.55c2.38-11.78,3.47-23.8,2.55-36.09
			c-0.94-12.51-2.57-24.66-7.34-36.24c-8.52-20.68-23.93-34.5-44.47-42.35c-17.03-6.51-35.07-7.02-53.05-6.03
			c-13.32,0.74-26.35,3.82-37.98,10.34c-17.73,9.94-30.38,24.51-36.43,44.31c-4.33,14.17-6.01,28.64-4.98,43.4
			c0.52,7.46,0.85,14.98,2.13,22.32c0.97,5.62,3.29,11.02,5.01,16.51c0.28,0.31,0.56,0.63,0.84,0.94
			c5.04,12.32,13.68,21.78,23.83,30.04c0.38,0.24,0.75,0.49,1.13,0.73c0.64,0.42,1.27,0.85,1.91,1.27c0.36,0.22,0.72,0.43,1.08,0.65
			c1.31,0.8,2.62,1.6,3.93,2.4C1563.36,990.2,1563.72,990.44,1564.08,990.67z M1590.08,1148.78c-4.16,0.05-8.36,0.43-12.48,0.01
			c-1.88-0.19-4.29-1.53-5.28-3.09c-7.59-11.91-11.51-24.99-10.12-39.15c1.17-11.99,6.57-21.81,17.09-28.4
			c9.19-5.76,19.69-6.35,29.95-7.06c12.03-0.84,23.97,0.27,35.5,4.7c20.06,7.7,25.4,24.29,23.15,41.55
			c-0.93,7.17-3.89,13.77-9.99,18.27c-3.31,2.44-6.96,4.42-10.38,6.57c0.33,1.29,0.78,2.66,1.02,4.06c2.55,15.18,5,30.39,7.68,45.55
			c0.35,2.01,1.39,3.96,4.49,2.37c4.01-2.06,8.45-3.28,12.48-5.32c12.49-6.33,21.82-15.82,27.72-28.59
			c6.61-14.29,5.81-29.79,7.07-44.91c0.5-6.04-0.67-12.2-0.81-18.31c-0.27-11.6-2.68-22.85-7.38-33.28
			c-9.57-21.21-25.8-35.43-47.94-42.81c-17.75-5.92-35.93-6.13-54.26-4c-19.81,2.31-37.26,9.45-51.63,23.9
			c-15.23,15.31-21.11,34.23-22.75,54.93c-0.55,6.93,0.11,13.95-0.04,20.92c-0.25,12.08,1.81,23.8,5.09,35.36
			c4.32,15.22,12.64,28.49,20.59,41.93c1.43,2.41,3.44,3.64,6.77,3.61c22.5-0.23,45-0.12,67.51-0.12c1.6,0,3.21,0,4.71,0
			c0-28.87,0-57.11,0-85.24c-12.41,0-24.51,0-36.96,0c0,12.08,0,23.89,0,35.69C1590.61,1148.2,1590.35,1148.49,1590.08,1148.78z
			 M722.01,1674.99c0.24,0.18,0.51,0.26,0.81,0.21c0.3,1.76,0.51,3.55,0.92,5.29c2.68,11.55,5.47,23.07,8.11,34.63
			c3.97,17.38,7.85,34.78,11.77,52.18c2.81,12.5,5.54,25.01,8.57,37.45c0.32,1.31,2.47,3.07,3.81,3.1
			c11.15,0.25,22.3,0.14,33.85,0.14c10.12-43.69,20.22-87.29,30.32-130.89c0.45,0.04,0.9,0.09,1.35,0.13c0,43.45,0,86.91,0,130.56
			c13.68,0,26.94,0,40.38,0c0-59.61,0-119.01,0-178.81c-18,0-35.8-0.03-53.59,0.02c-3.79,0.01-8.47-0.99-11.11,0.84
			c-2.19,1.52-2.01,6.5-2.82,9.96c-4.46,18.95-8.92,37.9-13.34,56.85c-3.02,13-5.97,26.01-8.94,39.02c-0.35-0.02-0.7-0.04-1.04-0.05
			c-8.21-35.45-16.43-70.9-24.66-106.44c-21.82,0-43.42,0-65.23,0c0,59.6,0,119.01,0,178.53c13.59,0,26.98,0,40.66,0
			c0-9.93-0.01-19.57,0-29.21C721.89,1743.99,721.95,1709.49,722.01,1674.99z M1265.05,692.1c2-0.05,3.99-0.15,5.99-0.15
			c56.99-0.01,113.98-0.01,170.97-0.01c1.93,0,3.86,0,5.72,0c0-35.04,0-69.43,0-103.68c-100.08,0-199.8,0-299.72,0
			c0,2.52,0,4.67,0,6.83c0,202.78,0,405.57-0.01,608.35c0,2.16-0.1,4.33-0.15,6.49c-0.63,0.02-1.27,0.03-1.9,0.05
			c-0.29-0.36-0.76-0.69-0.83-1.08c-1.77-10.77-3.34-21.57-5.28-32.31c-2.8-15.52-5.99-30.96-8.77-46.48
			c-3.19-17.78-5.98-35.64-9.18-53.42c-2.79-15.52-6.01-30.95-8.82-46.47c-2.87-15.86-5.4-31.77-8.21-47.64
			c-3.2-18.13-6.58-36.22-9.82-54.34c-3.57-19.94-7-39.9-10.61-59.83c-4.06-22.34-8.32-44.65-12.37-67
			c-3.35-18.46-6.47-36.96-9.79-55.43c-3.35-18.63-6.89-37.22-10.22-55.85c-3.25-18.15-6.27-36.35-9.52-54.5
			c-3.42-19.13-7.03-38.23-10.49-57.36c-3.93-21.71-7.81-43.43-11.7-65.15c-2.47-13.78-4.87-27.58-7.36-41.36
			c-2.33-12.91-4.74-25.8-7.1-38.57c-64.2,0-127.97,0-191.22,0c-1.25,6.26-2.58,12.11-3.56,18.02c-1.8,10.84-3.23,21.74-5.12,32.56
			c-2.5,14.29-5.44,28.51-7.95,42.8c-2.93,16.69-5.54,33.44-8.43,50.14c-1.7,9.84-3.82,19.61-5.5,29.45
			c-1.88,11-3.33,22.07-5.25,33.06c-2.12,12.18-4.65,24.29-6.83,36.46c-1.99,11.13-3.68,22.31-5.61,33.45
			c-1.71,9.85-3.66,19.65-5.32,29.5c-1.83,10.83-3.3,21.71-5.19,32.53c-2.15,12.23-4.7,24.39-6.87,36.61
			c-1.95,10.96-3.51,21.98-5.42,32.95c-2.1,12.07-4.48,24.09-6.59,36.16c-1.92,10.99-3.62,22.01-5.48,33.01
			c-1.81,10.64-3.71,21.27-5.56,31.91c-1.78,10.27-3.52,20.54-5.31,30.8c-2.55,14.58-5.12,29.16-7.69,43.74
			c-2.15,12.18-4.32,24.35-6.45,36.53c-2.2,12.5-4.35,25.01-6.55,37.51c-2.23,12.66-4.56,25.3-6.7,37.97
			c-2.23,13.17-4.29,26.38-6.43,39.56c-0.6-0.72-1.59-1.36-1.75-2.17c-1.13-5.5-2.1-11.04-3.09-16.57
			c-3.9-21.8-7.77-43.6-11.69-65.39c-3.4-18.87-6.89-37.72-10.3-56.58c-3.97-21.95-7.88-43.91-11.84-65.86
			c-3.37-18.71-6.79-37.4-10.16-56.11c-3.96-21.95-7.87-43.92-11.83-65.87c-3.37-18.7-6.8-37.4-10.17-56.1
			c-3.96-21.95-7.87-43.91-11.82-65.86c-3.39-18.87-6.83-37.73-10.2-56.59c-4.22-23.59-8.56-47.16-12.46-70.8
			c-0.77-4.65-2.74-5.28-6.79-5.27c-41,0.13-82,0.08-123,0.08c-1.77,0-3.54,0-5.48,0c-40.17,231.64-80.23,462.61-120.42,694.3
			c2.54,0,4.49,0,6.43,0c37,0,74,0,111,0c11.37,0,11.53,0.02,12.79-11.41c2.38-21.61,4.65-43.23,6.8-64.87
			c1.86-18.67,3.45-37.36,5.25-56.04c0.5-5.21,1.33-10.39,2.04-15.8c30.14,0,59.62-0.05,89.1,0.16c1.21,0.01,3.23,2.24,3.45,3.66
			c1.03,6.72,1.52,13.52,2.27,20.28c1.73,15.67,3.46,31.34,5.24,47.01c1.89,16.65,3.83,33.3,5.77,49.94
			c1.03,8.84,2.1,17.68,3.2,26.9c29.74,0,58.88,0,88.02,0c-0.15,1.65-0.17,3.33-0.46,4.96c-2.56,14.26-5.22,28.5-7.74,42.77
			c-3.32,18.81-6.56,37.63-9.79,56.45c-2.43,14.11-4.8,28.23-7.22,42.52c61.74,0,123.3,0,184.68,0
			c7-70.67,13.97-140.99,20.94-211.39c44.01,0,88.08,0,132.11,0c0.79,7.96,1.54,15.62,2.33,23.29c0.67,6.52,1.31,13.05,2.07,19.56
			c1.26,10.72,2.67,21.41,3.9,32.13c1.11,9.6,2,19.23,3.1,28.84c1.23,10.72,2.66,21.42,3.9,32.13c0.81,7,1.33,14.03,2.16,21.03
			c1.21,10.22,2.63,20.42,3.84,30.65c0.9,7.62,1.62,15.26,2.48,23.48c60.24,0,120.34,0,180.94,0c-1.15-6.43-2.23-12.67-3.38-18.91
			c-2.29-12.47-4.64-24.93-6.93-37.4c-2.38-12.96-4.74-25.92-7.05-38.9c-2.67-15.04-5.27-30.08-7.9-45.13c36.58,0,73.15,0,109.78,0
			c-1-105.02-2-209.35-3-314.13c45.92,0,92.32,0,138.83,0c0-34.17,0-67.88,0-102.1c-47.03,0-93.74,0-140.71,0c0-2.33,0-4.14,0-5.96
			c0-43.48-0.01-86.96,0.01-130.45c0.01-13.16,0.1-26.32,0.16-39.47C1264.5,692.63,1264.78,692.37,1265.05,692.1z M1603.97,1342.7
			c0.83,0.62,1.31,0.81,1.52,1.16c0.42,0.68,0.77,1.42,1.02,2.17c3.29,9.8,7.61,18.63,15.87,25.73c7.01,6.02,14.79,9.94,23.36,10.83
			c10.28,1.07,20.91,1.42,30.8-3.65c10.93-5.62,19.44-13.2,23.6-25.15c4.85-13.94,4.34-28.54,4.73-42.85
			c0.78-28.14,0.23-56.31,0.22-84.47c0-1.59-0.15-3.17-0.23-4.67c-59.81,0-119.19,0-178.42,0c0,18.59,0,36.83,0,55.44
			c24.09,0,47.84,0,71.57,0c0.35,12.47-1.3,17.78-8.39,21.87c-20.93,12.09-42.08,23.81-63.52,35.89c0,35.25,0.03,71.06-0.07,106.88
			c-0.01,2.55,1.15,3.32,3.14,3.88c8.82,2.49,17.63,5.01,26.37,7.49c0,21.08,0,41.72,0,62.51c-9.87,2.99-19.65,5.95-29.12,8.81
			c0,19.5,0,38.38,0,57.58c3.15-0.97,5.98-1.67,8.68-2.71c13.29-5.11,26.5-10.45,39.83-15.46c15.03-5.65,30.18-10.95,45.22-16.58
			c11.6-4.34,23.08-9.01,34.66-13.41c15.75-5.99,31.56-11.81,47.27-17.89c1.29-0.5,2.88-2.39,2.9-3.65
			c0.19-18.33,0.17-36.66,0.04-54.99c-0.01-1.11-1.11-2.83-2.11-3.23c-7.82-3.15-15.73-6.05-23.62-9.01
			c-20.64-7.73-41.27-15.5-61.94-23.17c-19.12-7.1-38.31-14.03-57.43-21.16c-7.41-2.77-14.7-5.87-22.68-9.07
			c3.93-2.19,7.12-4.07,10.41-5.77c10.19-5.29,20.6-10.17,30.56-15.85C1589.45,1363.79,1599.77,1356.16,1603.97,1342.7z
			 M403.1,181.36c2.28-1.04,3.69-1.91,5.21-2.35c15.98-4.62,26.99-14.65,32.56-30.32c3.9-10.95,3.01-22.2,0.99-33.37
			c-2.32-12.83-16.52-28.29-28.87-30.26c-12.78-2.03-25.72-3.74-38.63-4.03c-27.15-0.6-54.33-0.18-81.49-0.18c-1.78,0-3.56,0-5.45,0
			c0,59.91,0,119.3,0,178.7c18.02,0,35.75,0,53.82,0c0-24.26,0-48.19,0-72.31c7.35-0.78,13.89,0.53,18.56,6.02
			c3.75,4.4,7,9.35,9.74,14.45c8.24,15.36,16.04,30.96,24.25,46.34c1.22,2.29,3.7,5.52,5.65,5.56c19.26,0.42,38.53,0.25,58.39,0.25
			c-7.67-15.34-15.02-30.2-22.51-44.99C428.15,200.7,420.5,186.88,403.1,181.36z M1649.67,181.37c1.39-0.85,1.9-1.34,2.49-1.49
			c15.13-3.87,26.42-12.46,33.21-26.7c4.82-10.13,5.46-20.63,3.85-31.64c-2.34-15.97-9.98-27.85-24.84-34.65
			c-13.28-6.08-27.67-5.51-41.67-5.84c-27.97-0.67-55.97-0.2-83.96-0.2c-1.62,0-3.24,0-4.79,0c0,59.92,0,119.3,0,178.69
			c17.98,0,35.7,0,53.76,0c0-24.27,0-48.21,0-72.1c9.89-1.49,19.36,2.57,25.79,15.1c9.21,17.95,18.67,35.77,27.89,53.72
			c1.4,2.73,3.1,3.81,6.16,3.67c5.15-0.24,10.33-0.06,15.49-0.06c13.58,0,27.16,0,41.34,0c-7.83-15.67-15.25-30.79-22.91-45.78
			C1674.35,200.13,1666.43,186.79,1649.67,181.37z M1613.48,646.66c0.05,0.52,0.11,1.05,0.16,1.57c11.26-1.73,22.61-3.02,33.75-5.31
			c13.78-2.84,25.59-9.86,35.7-19.57c20.37-19.6,24.49-45,24.89-71.54c0.09-6.01-1.14-12.05-1.85-18.06
			c-2.14-18.16-9.29-34.06-22-47.25c-15.77-16.36-35.98-23.15-57.88-24.41c-25.07-1.45-49.55,0.39-70.93,16.68
			c-12.35,9.42-20.93,20.91-26.13,35.25c-5.59,15.44-6.52,31.42-6.18,47.7c0.28,13.25,2.48,25.87,7.87,37.99
			c8.28,18.64,21.85,32.24,40.48,39.94C1584.63,645.14,1598.78,648.17,1613.48,646.66z M1415.78,262.75
			c13,0.58,24.9-0.82,36.48-4.88c12.43-4.36,23.18-11.21,31.96-20.98c13.63-15.15,19.58-33.61,20.68-53.41
			c0.94-17.04,0.85-34.13-4.65-50.83c-7.23-21.95-20.8-37.76-42.09-46.76c-10.92-4.62-22.48-6.01-34.25-7.28
			c-15.01-1.62-29.35,0.22-43.59,4.39c-21.5,6.29-36.1,20.87-45.72,40.28c-7.42,14.98-8.75,31.67-9.38,48.17
			c-0.24,6.45,1.09,12.97,1.89,19.44c1.62,13.01,5.93,25.11,12.94,36.19c9.57,15.12,22.83,25.65,39.89,31.14
			C1391.84,262.05,1404.09,263.61,1415.78,262.75z M179.76,1425.14c14.92-0.48,29.18-1.93,42.72-7.21
			c17.77-6.93,32.08-18.18,41.18-35.22c8.2-15.36,9.76-32.33,10.06-49.25c0.22-12.09-1.58-24.02-5.34-35.83
			c-9.31-29.22-37.9-48.34-65.74-50.67c-4.92-0.41-9.92-0.31-14.77-1.1c-15.68-2.58-31.19-0.54-45.68,4.64
			c-33.68,12.05-50.15,37.98-53.07,72.64c-0.97,11.55,0.12,23.51,1.98,35c2.82,17.44,10.8,32.67,24.21,44.6
			C133.83,1419.21,156.32,1424.26,179.76,1425.14z M490.65,1724.87c0.68,4.91,1.9,14.68,3.46,24.41c0.53,3.32,1.77,6.56,2.92,9.75
			c12.32,34,38.26,51.79,73.6,51.83c5.09,0.01,10.18-0.65,15.28-0.84c25.57-0.97,44.94-12.5,58.49-34.09
			c10.28-16.37,12.71-34.82,13.34-53.47c0.46-13.63-0.82-27.19-4.61-40.57c-7.88-27.85-25.24-45.94-53.34-52.67
			c-12.71-3.05-25.86-4.04-39.13-2.33c-22.61,2.92-41.02,12.61-53.89,31.79C494.34,1677.2,491.19,1698.18,490.65,1724.87z
			 M778.7,197.87c-1.22,0-2.05-0.03-2.87,0.01c-14.06,0.66-28.12,1.42-42.18,1.95c-5.35,0.2-6.98,1.33-5.55,6.44
			c2.38,8.47,4.74,17.12,8.57,24.97c6.16,12.64,16.15,21.87,29.73,26.34c18.62,6.13,37.75,6.16,57.09,4.44
			c11.35-1.01,21.85-4.12,31.84-9.32c26.26-13.67,37.81-49.2,24.2-75.32c-7.19-13.79-19.55-21.78-33.81-26.37
			c-16.55-5.32-33.47-9.49-50.23-14.14c-6.72-1.87-11.66-7.14-11.5-12.37c0.17-5.64,5.4-11.41,11.97-12.52
			c3.24-0.54,6.64-0.04,9.97-0.13c9.06-0.25,17.18,4.89,20.4,13.46c1.12,2.97,1.01,7.57,3.02,8.73c2.44,1.41,6.52-0.08,9.9-0.24
			c7.24-0.34,14.49-0.52,21.73-0.96c6.01-0.36,11.99-1,17.97-1.51c0.35-16.81-10.98-37.06-26.41-44.6
			c-14.59-7.13-30.17-8.18-45.83-8.69c-7.66-0.25-15.4,0.92-23.05,1.87c-12.51,1.57-24.27,5.58-33.47,14.43
			c-12.53,12.05-18.22,26.66-15.19,44.42c1.89,11.05,7.29,19.67,15.38,26.93c12.85,11.53,29.2,15.27,45.03,20.22
			c9.85,3.08,19.93,5.8,29.26,10.07c8.44,3.87,11.9,14.38,5.21,22.67c-10.48,12.97-29.37,11.43-40.44,2.17
			C782.4,214.93,780.63,206.55,778.7,197.87z M211.23,1599.9c2.63,0,5.28,0.31,7.84-0.05c32.13-4.48,54.29-30.6,53.95-63.41
			c-0.09-8.7-0.22-17.4-0.08-26.1c0.17-10.48-1.88-20.59-5.86-30.12c-8.01-19.17-21.96-31.59-42.86-35.26
			c-11.52-2.02-22.87-2.1-33.8,3.09c-14.88,7.07-23.44,19.6-28.4,34.45c-5.72,17.14-10.15,34.71-15.17,52.09
			c-1.29,4.46-3.26,8.54-8.43,9.34c-6.03,0.93-10.72-1.26-13.76-6.74c-6.37-11.48-1.96-30.72,12.24-35.32
			c2.6-0.84,5.2-1.7,8.18-2.68c-1.09-16.66-2.19-33.37-3.31-50.48c-11.34,2-21.86,4.73-30.74,11.64
			c-15.74,12.24-20.57,29.76-21.97,48.37c-0.75,10.01,0.36,20.17,0.89,30.24c0.57,10.68,3.78,20.63,8.97,29.97
			c17.08,30.78,61.23,34.87,81.37,4.14c9.36-14.28,13.61-30.51,17.79-46.82c1.98-7.71,4.66-15.4,8.15-22.53
			c5.07-10.35,20.19-10.13,26.41-2.9c4.15,4.83,5.28,10.28,5.43,16.43c0.21,8.14-0.87,15.67-6.48,22.02
			c-5.21,5.9-11.95,8.74-19.54,9.66c-3.24,0.39-4.58,1.59-4.21,4.96c0.82,7.51,1.53,15.05,2.07,22.58
			C210.49,1584.2,210.8,1591.94,211.23,1599.9z M270.6,369.99c0-19.05,0-37.46,0-56.21c-25.44,9.26-50.49,18.39-75.56,27.49
			c-21.9,7.95-43.83,15.83-65.73,23.79c-11.2,4.07-22.36,8.23-33.52,12.39c-2.29,0.85-4.05,1.75-4.01,5.08
			c0.24,17.33,0.02,34.66,0.26,51.99c0.02,1.7,1.72,4.29,3.26,4.91c7.71,3.09,15.63,5.64,23.46,8.42c9.05,3.22,18.1,6.45,27.13,9.74
			c9.32,3.39,18.62,6.84,27.94,10.26c8.69,3.19,17.38,6.38,26.09,9.53c8.86,3.21,17.76,6.32,26.61,9.55
			c9.08,3.32,18.12,6.77,27.19,10.13c5.52,2.04,11.07,4.02,17.18,6.24c0-18.13,0.05-35.59-0.12-53.06
			c-0.01-1.07-1.61-2.72-2.78-3.08c-7.31-2.23-14.63-4.66-22.13-6.02c-4.15-0.76-4.61-2.58-4.59-5.96c0.1-15,0.04-30,0.04-44.99
			c0-3.95,0-7.9,0-11.52C251.6,375.61,261.24,372.76,270.6,369.99z M270.9,259.74c-7.63-20.87-15.07-41.34-22.58-61.78
			c-4.42-12.03-9.03-23.99-13.38-36.04c-9.43-26.13-18.72-52.31-28.21-78.42c-0.42-1.14-2.22-2.53-3.39-2.54
			c-17.82-0.16-35.65-0.16-53.48-0.02c-1.3,0.01-3.37,1.03-3.77,2.08c-3.86,10.22-7.41,20.55-11.09,30.84
			c-4.58,12.79-9.14,25.58-13.83,38.33c-7,19.01-14.11,37.99-21.16,56.98c-3.95,10.63-7.93,21.25-11.77,31.92
			c-2.18,6.06-4.1,12.2-6.29,18.78c17.89,0,35.04,0.06,52.18-0.13c1.22-0.01,3.13-1.63,3.51-2.88c2.27-7.42,4.25-14.94,6.2-22.45
			c0.69-2.67,1.71-4.14,4.92-4.11c17.99,0.16,35.99,0.02,53.98,0.18c1.44,0.01,3.8,1.22,4.15,2.36c2.72,8.85,5.06,17.82,7.56,26.9
			C232.98,259.74,251.62,259.74,270.9,259.74z M241.32,831.69c10.2-3.02,19.86-5.88,29.39-8.71c0-18.98,0-37.44,0-55.92
			c-0.68-0.06-1.24-0.27-1.66-0.11c-20.48,7.53-40.91,15.16-61.41,22.64c-37.15,13.55-74.31,27.08-111.53,40.43
			c-3.39,1.22-4.35,2.77-4.31,6.25c0.2,14.66,0.07,29.33,0.1,43.99c0.01,3.32-0.9,7.3,0.61,9.75c1.32,2.14,5.42,2.62,8.33,3.73
			c12.1,4.64,24.16,9.4,36.34,13.84c12.46,4.54,25.09,8.63,37.56,13.16c15.67,5.69,31.22,11.68,46.86,17.46
			c13.09,4.83,26.21,9.58,39.35,14.26c3.12,1.11,6.38,1.82,9.81,2.77c0-18.48,0-36.28,0-54.18c-8.27-2.39-16.35-5.09-24.62-6.97
			c-3.96-0.9-4.96-2.53-4.89-6.3c0.22-11.16,0.07-22.33,0.07-33.49C241.32,846.64,241.32,839,241.32,831.69z M270.63,1662.98
			c0-19.03,0-37.45,0-56.24c-6.93,2.54-13.5,4.99-20.1,7.36c-18.72,6.71-37.49,13.27-56.16,20.09
			c-21.41,7.82-42.73,15.86-64.11,23.77c-11.61,4.3-23.26,8.47-34.83,12.87c-1.39,0.53-3.39,2.11-3.4,3.23
			c-0.21,18.8-0.15,37.61-0.15,56.5c59.72,21.77,119.12,43.43,178.86,65.21c0-18.68,0-36.63,0-54.85
			c-8.33-2.32-16.57-4.74-24.87-6.87c-2.86-0.73-4.65-1.53-4.62-5.06c0.15-17.99,0.1-35.98,0.03-53.98
			c-0.01-2.48,0.52-3.7,3.27-4.42C253.31,1668.29,261.95,1665.55,270.63,1662.98z M155.3,1104.23
			c-3.69-16.15-7.24-31.71-10.85-47.49c-16.34,5.47-30.78,13.05-40.99,26.86c-10.8,14.61-14.51,31.36-14.66,49.32
			c-0.13,15.85,1.61,31.23,8.3,45.74c10.13,21.95,27.44,35.19,50.58,41.35c15.07,4.01,30.21,4.21,45.74,3.19
			c18.75-1.24,35.51-6.68,50.44-17.97c12.21-9.22,21.84-20.39,25.04-35.77c1.85-8.92,2.63-18.05,4.03-27.07
			c2.53-16.35,0.49-32.29-6.17-47.22c-10.4-23.34-30.51-34.05-54.46-39.77c-4.96,15.88-9.8,31.39-14.55,46.61
			c3.76,1.32,7.04,2.78,10.47,3.62c13.56,3.3,24.38,13.8,23.92,31.88c-0.4,16.04-10.23,26.53-22.87,29.61
			c-13.7,3.33-27.53,3.15-41.38,2.61c-9.91-0.38-19.25-3.25-26.69-10.08c-9.42-8.66-13.48-19.35-10.12-32.15
			C134.33,1115.08,142.65,1107.7,155.3,1104.23z M1374.78,1629.1c-20.17,59.67-40.29,119.18-60.4,178.71c17.13,0,34.1,0,51.19,0
			c1.68-6.44,3.19-12.76,4.98-19.01c2.96-10.31,3.03-10.29,13.88-10.29c15.12,0,30.25,0,45.29,0c2.67,10.04,5.22,19.64,7.77,29.23
			c17.44,0,34.83,0,52.37,0c-20.22-59.76-40.35-119.23-60.45-178.64C1410.92,1629.1,1392.77,1629.1,1374.78,1629.1z M874.27,1807.99
			c16.73,0,32.68,0.06,48.62-0.13c1.04-0.01,2.64-1.71,3-2.91c2.2-7.5,4.26-15.05,6.04-22.65c0.71-3.02,2.05-3.9,5.08-3.87
			c15.5,0.15,31,0.07,46.5,0.07c2.1,0,4.19,0,6.04,0c2.43,9.59,4.63,18.5,7.04,27.34c0.24,0.9,1.79,2.05,2.74,2.06
			c16.58,0.13,33.17,0.09,50.09,0.09c-0.44-1.62-0.68-2.74-1.04-3.82c-6.6-19.71-13.16-39.44-19.84-59.13
			c-12.81-37.78-25.67-75.55-38.62-113.28c-0.39-1.15-2.05-2.66-3.13-2.67c-17.3-0.17-34.61-0.12-52.3-0.12
			C914.44,1688.59,894.46,1747.99,874.27,1807.99z M1704.76,447.88c0-45.53,0-90.88,0-136.31c-59.64,0-118.92,0-178.43,0
			c0,18.44,0,36.68,0,55.47c24.38,0,48.58,0,73.04,0c0,23.35,0,46.14,0,69.12c12.01,0,23.75,0,35.97,0c0-23.13,0-46.04,0-68.95
			c10.71,0,20.93,0,31.55,0c0,27.08,0,53.83,0,80.67C1679.75,447.88,1692.2,447.88,1704.76,447.88z M1526.33,760.18
			c45.07,0,89.78,0,134.89,0c0,18.89,0,37.3,0,55.61c14.81,0,29.21,0,43.57,0c0-56.01,0-111.72,0-167.43c-14.73,0-29.14,0-44,0
			c0,18.88,0,37.46,0,56.37c-45.05,0-89.64,0-134.46,0C1526.33,723.17,1526.33,741.26,1526.33,760.18z M92.22,600.57
			c0,54.43,0,108.49,0,162.5c14.74,0,29.14,0,43.99,0c0-18.26,0-36.19,0-54.45c45.06,0,89.67,0,134.29,0c0-18.05,0-35.74,0-53.81
			c-44.98,0-89.57,0-134.62,0c0-18.27,0-36.18,0-54.25C121.13,600.57,106.84,600.57,92.22,600.57z M1177.16,81
			c0,59.84,0,119.23,0,178.51c45.82,0,91.36,0,136.77,0c0-14.65,0-28.93,0-43.75c-27.88,0-55.58,0-83.73,0c0-45.24,0-89.94,0-134.76
			C1212.32,81,1194.87,81,1177.16,81z M1526.46,1750.35c0,18.52,0,36.71,0,54.8c59.72,0,119.09,0,178.38,0c0-18.44,0-36.53,0-54.8
			C1645.33,1750.35,1586.08,1750.35,1526.46,1750.35z M270.69,522.18c-59.77,0-119.17,0-178.4,0c0,18,0,35.71,0,53.31
			c59.67,0,118.93,0,178.4,0C270.69,557.66,270.69,540.06,270.69,522.18z M700.43,259.77c0-59.78,0-119.17,0-178.59
			c-17.98,0-35.7,0-53.22,0c0,59.72,0,119.1,0,178.59C664.98,259.77,682.45,259.77,700.43,259.77z M92.29,975.04
			c0,18.18,0,35.88,0,53.49c59.66,0,118.93,0,178.32,0c0-17.95,0-35.67,0-53.49C211.04,975.04,151.76,975.04,92.29,975.04z
			 M1249.03,1629.18c0,59.75,0,119.15,0,178.61c16.58,0,32.86,0,49.32,0c0-59.61,0-119.01,0-178.61
			C1281.88,1629.18,1265.6,1629.18,1249.03,1629.18z M920.96,1618.15c9.27,0,17.1,0.13,24.92-0.11c1.42-0.04,3.18-1.28,4.13-2.48
			c3.39-4.25,6.59-8.65,9.67-13.13c1.5-2.19,2.3-2.16,3.8,0.05c3.09,4.57,6.38,9.03,9.79,13.36c0.85,1.08,2.48,2.17,3.78,2.2
			c8.15,0.2,16.3,0.1,24.97,0.1c-0.94-1.57-1.61-2.83-2.41-3.99c-5.99-8.65-12.19-17.16-17.93-25.98c-2.54-3.9-5.35-5.68-10.08-5.15
			c-4.11,0.47-8.37,0.51-12.48,0.01c-8.66-1.06-15.18,0.89-19.98,9.12C934.03,1600.92,927.54,1608.86,920.96,1618.15z
			 M343.79,689.83c-0.82-1.56-1.37-2.57-1.88-3.6c-4.79-9.76-11.51-17.47-22.97-18.6c-10.83-1.07-21.76-1.19-32.94-1.75
			c0,11.21,0,21.62,0,32.17c9.47,0,18.83,0,28.52,0c0-4.45,0-8.55,0-13.1c9.31-0.07,12.46,7.08,16.67,13.3
			C335.41,695.44,339.45,692.74,343.79,689.83z M791.56,303.46c4.67,0,9.06,0,13.57,0c-0.13,9.87-8.18,12.51-14,16.75
			c2.32,3.68,4.35,7.14,6.65,10.41c0.59,0.84,2.36,1.8,3.02,1.49c9.7-4.49,18.96-10.39,20.82-21.52c1.94-11.6,1.55-23.6,2.19-35.6
			c-11.39,0-21.76,0-32.26,0C791.56,284.48,791.56,293.7,791.56,303.46z"/>
		<path class="st1" d="M1159.16,1285.01c2.63,15.04,5.23,30.09,7.9,45.13c2.31,12.97,4.67,25.94,7.05,38.9
			c2.29,12.47,4.64,24.93,6.93,37.4c1.15,6.24,2.23,12.48,3.38,18.91c-60.6,0-120.69,0-180.94,0c-0.86-8.22-1.58-15.86-2.48-23.48
			c-1.21-10.22-2.64-20.42-3.84-30.65c-0.83-7-1.35-14.03-2.16-21.03c-1.24-10.72-2.66-21.41-3.9-32.13c-1.11-9.6-2-19.23-3.1-28.84
			c-1.23-10.72-2.64-21.42-3.9-32.13c-0.77-6.51-1.41-13.04-2.07-19.56c-0.78-7.66-1.53-15.33-2.33-23.29c-44.03,0-88.1,0-132.11,0
			c-6.97,70.4-13.94,140.72-20.94,211.39c-61.38,0-122.94,0-184.68,0c2.42-14.28,4.79-28.4,7.22-42.52
			c3.24-18.82,6.47-37.64,9.79-56.45c2.52-14.27,5.18-28.51,7.74-42.77c0.29-1.63,0.31-3.3,0.46-4.96c0.59-2.72,1.27-5.42,1.75-8.16
			c3.21-18.38,6.36-36.76,9.55-55.14c2.77-15.91,5.57-31.82,8.36-47.73c2.13-13.19,4.2-26.39,6.43-39.56
			c2.14-12.67,4.47-25.31,6.7-37.97c2.2-12.5,4.35-25.01,6.55-37.51c2.14-12.18,4.31-24.35,6.45-36.53
			c2.57-14.58,5.14-29.16,7.69-43.74c1.79-10.26,3.53-20.54,5.31-30.8c1.85-10.64,3.75-21.26,5.56-31.91
			c1.87-11,3.56-22.02,5.48-33.01c2.11-12.07,4.49-24.09,6.59-36.16c1.91-10.97,3.48-21.99,5.42-32.95
			c2.17-12.23,4.73-24.38,6.87-36.61c1.9-10.81,3.37-21.7,5.19-32.53c1.66-9.85,3.61-19.66,5.32-29.5
			c1.93-11.14,3.62-22.32,5.61-33.45c2.17-12.17,4.71-24.28,6.83-36.46c1.92-10.99,3.37-22.06,5.25-33.06
			c1.68-9.84,3.8-19.61,5.5-29.45c2.89-16.7,5.5-33.45,8.43-50.14c2.51-14.29,5.45-28.51,7.95-42.8c1.9-10.82,3.32-21.72,5.12-32.56
			c0.98-5.91,2.31-11.75,3.56-18.02c63.26,0,127.02,0,191.22,0c2.35,12.77,4.77,25.66,7.1,38.57c2.49,13.78,4.89,27.57,7.36,41.36
			c3.89,21.72,7.76,43.44,11.7,65.15c3.47,19.13,7.07,38.23,10.49,57.36c3.25,18.15,6.27,36.35,9.52,54.5
			c3.33,18.63,6.87,37.22,10.22,55.85c3.32,18.47,6.45,36.97,9.79,55.43c4.05,22.34,8.31,44.65,12.37,67
			c3.62,19.93,7.05,39.89,10.61,59.83c3.24,18.12,6.62,36.21,9.82,54.34c2.81,15.87,5.34,31.78,8.21,47.64
			c2.81,15.51,6.04,30.95,8.82,46.47c3.2,17.78,5.99,35.64,9.18,53.42c2.78,15.52,5.97,30.96,8.77,46.48
			c1.94,10.74,3.51,21.54,5.28,32.31c0.07,0.4,0.54,0.72,0.83,1.08c0.65,2.53,1.29,5.06,1.94,7.59c0.67,4.79,1.13,9.63,2.07,14.37
			c1.51,7.6,3.66,15.09,4.96,22.73C1156.63,1264.73,1157.77,1274.89,1159.16,1285.01z M967.71,1074.72
			c-16.56-135.68-33.1-271.15-49.63-406.53c-4.44,0-8.2,0-12.2,0c-16.78,135.57-33.54,270.89-50.33,406.53
			C893.37,1074.72,930.32,1074.72,967.71,1074.72z"/>
		<path class="st2" d="M686.84,1167.91c-2.79,15.91-5.59,31.82-8.36,47.73c-3.2,18.38-6.34,36.77-9.55,55.14
			c-0.48,2.74-1.16,5.44-1.75,8.16c-29.14,0-58.28,0-88.02,0c-1.1-9.22-2.17-18.06-3.2-26.9c-1.94-16.65-3.88-33.29-5.77-49.94
			c-1.78-15.67-3.51-31.34-5.24-47.01c-0.74-6.76-1.24-13.56-2.27-20.28c-0.22-1.42-2.24-3.65-3.45-3.66
			c-29.48-0.21-58.96-0.16-89.1-0.16c-0.71,5.41-1.54,10.59-2.04,15.8c-1.8,18.67-3.39,37.37-5.25,56.04
			c-2.15,21.63-4.41,43.26-6.8,64.87c-1.26,11.43-1.42,11.41-12.79,11.41c-37,0-74,0-111,0c-1.95,0-3.9,0-6.43,0
			c40.18-231.69,80.24-462.66,120.42-694.3c1.94,0,3.71,0,5.48,0c41,0,82,0.05,123-0.08c4.05-0.01,6.03,0.62,6.79,5.27
			c3.9,23.64,8.24,47.21,12.46,70.8c3.38,18.87,6.81,37.73,10.2,56.59c3.95,21.95,7.86,43.91,11.82,65.86
			c3.37,18.7,6.8,37.4,10.17,56.1c3.96,21.95,7.87,43.91,11.83,65.87c3.37,18.71,6.79,37.41,10.16,56.11
			c3.96,21.95,7.87,43.91,11.84,65.86c3.41,18.86,6.9,37.71,10.3,56.58c3.93,21.79,7.79,43.59,11.69,65.39
			c0.99,5.53,1.96,11.06,3.09,16.57C685.25,1166.54,686.23,1167.19,686.84,1167.91z M553.85,1033.61
			c-1.13-9.05-2.23-17.73-3.31-26.42c-1.88-15.14-3.77-30.28-5.61-45.42c-1.64-13.5-3.15-27.02-4.81-40.51
			c-1.66-13.5-3.45-26.98-5.14-40.48c-1.94-15.46-3.85-30.93-5.73-46.41c-2.16-17.78-4.29-35.57-6.38-53.37
			c-1.1-9.39-2.13-18.8-3.12-28.2c-0.33-3.14-1.94-4.07-5-3.98c-2.94,0.08-4.64,0.63-4.89,4.04c-0.39,5.29-1.31,10.53-1.91,15.8
			c-1.46,13.03-2.74,26.08-4.33,39.09c-2.11,17.28-4.49,34.52-6.67,51.79c-1.88,14.97-3.59,29.97-5.47,44.94
			c-2.12,16.95-4.38,33.88-6.5,50.83c-2.31,18.43-4.56,36.87-6.77,55.32c-0.9,7.53-1.62,15.07-2.47,22.99
			C501.95,1033.61,527.53,1033.61,553.85,1033.61z"/>
		<path class="st3" d="M1159.16,1285.01c-1.38-10.12-2.53-20.28-4.23-30.34c-1.3-7.64-3.45-15.12-4.96-22.73
			c-0.94-4.74-1.39-9.58-2.07-14.37c-0.01-2.55-0.03-5.09-0.04-7.64c0.05-2.16,0.15-4.33,0.15-6.49
			c0.01-202.78,0.01-405.57,0.01-608.35c0-2.16,0-4.31,0-6.83c99.93,0,199.65,0,299.72,0c0,34.25,0,68.63,0,103.68
			c-1.86,0-3.79,0-5.72,0c-56.99,0-113.98,0-170.97,0.01c-2,0-3.99,0.1-5.99,0.15c-0.27,0.27-0.55,0.53-0.82,0.8
			c-0.06,13.16-0.15,26.32-0.16,39.47c-0.02,43.48-0.01,86.96-0.01,130.45c0,1.81,0,3.63,0,5.96c46.97,0,93.68,0,140.71,0
			c0,34.22,0,67.93,0,102.1c-46.51,0-92.91,0-138.83,0c1,104.78,2,209.11,3,314.13C1232.31,1285.01,1195.73,1285.01,1159.16,1285.01
			z"/>
		<path class="st4" d="M1603.97,1342.7c-4.2,13.46-14.52,21.09-25.77,27.51c-9.96,5.68-20.38,10.56-30.56,15.85
			c-3.29,1.71-6.48,3.59-10.41,5.77c7.98,3.21,15.27,6.31,22.68,9.07c19.11,7.13,38.3,14.06,57.43,21.16
			c20.67,7.67,41.3,15.44,61.94,23.17c7.89,2.96,15.8,5.86,23.62,9.01c1.01,0.41,2.11,2.12,2.11,3.23
			c0.13,18.33,0.15,36.66-0.04,54.99c-0.01,1.26-1.61,3.15-2.9,3.65c-15.71,6.08-31.52,11.9-47.27,17.89
			c-11.58,4.4-23.06,9.07-34.66,13.41c-15.04,5.62-30.19,10.93-45.22,16.58c-13.33,5.01-26.54,10.35-39.83,15.46
			c-2.7,1.04-5.53,1.73-8.68,2.71c0-19.2,0-38.08,0-57.58c9.47-2.86,19.25-5.83,29.12-8.81c0-20.79,0-41.43,0-62.51
			c-8.73-2.48-17.55-5-26.37-7.49c-2-0.56-3.15-1.33-3.14-3.88c0.11-35.82,0.07-71.64,0.07-106.88
			c21.44-12.08,42.58-23.81,63.52-35.89c7.09-4.09,8.74-9.4,8.39-21.87c-23.73,0-47.48,0-71.57,0c0-18.62,0-36.85,0-55.44
			c59.23,0,118.62,0,178.42,0c0.08,1.5,0.23,3.09,0.23,4.67c0.01,28.16,0.56,56.34-0.22,84.47c-0.4,14.31,0.12,28.91-4.73,42.85
			c-4.16,11.95-12.66,19.54-23.6,25.15c-9.88,5.08-20.51,4.73-30.8,3.65c-8.57-0.89-16.36-4.81-23.36-10.83
			c-8.26-7.1-12.58-15.92-15.87-25.73c-0.25-0.76-0.6-1.5-1.02-2.17C1605.28,1343.51,1604.81,1343.32,1603.97,1342.7z
			 M1668.09,1277.09c-11.75,0-23.5,0-35.09,0c0,9.41-0.35,18.38,0.14,27.31c0.26,4.78,1.13,9.89,3.2,14.12
			c3.68,7.52,10.6,10.03,19.48,8.44c6.43-1.15,11.57-6.6,12.11-14.57c0.78-11.43,0.69-22.93,0.97-34.39
			C1668.64,1277.7,1668.37,1277.39,1668.09,1277.09z M1594.64,1465.12c0,13.17,0,25.86,0,38.93c21.29-6.53,42.12-12.91,63.83-19.57
			C1636.67,1477.86,1615.72,1471.51,1594.64,1465.12z"/>
		<path d="M820.17,1677.11c-10.1,43.6-20.2,87.2-30.32,130.89c-11.55,0-22.71,0.11-33.85-0.14c-1.34-0.03-3.49-1.79-3.81-3.1
			c-3.04-12.44-5.76-24.96-8.57-37.45c-3.92-17.39-7.8-34.8-11.77-52.18c-2.64-11.56-5.42-23.08-8.11-34.63
			c-0.4-1.74-0.62-3.52-0.92-5.29c-0.24-0.9-0.49-1.79-0.73-2.69c-0.34,0.1-0.68,0.19-1.03,0.29c0.32,0.73,0.63,1.46,0.95,2.19
			c-0.06,34.5-0.12,69-0.17,103.5c-0.01,9.64,0,19.28,0,29.21c-13.68,0-27.07,0-40.66,0c0-59.51,0-118.92,0-178.53
			c21.81,0,43.41,0,65.23,0c8.23,35.54,16.45,70.99,24.66,106.44c0.35,0.02,0.7,0.04,1.04,0.05c2.98-13.01,5.92-26.02,8.94-39.02
			c4.41-18.96,8.88-37.91,13.34-56.85c0.81-3.46,0.63-8.44,2.82-9.96c2.63-1.83,7.31-0.83,11.11-0.84
			c17.79-0.05,35.59-0.02,53.59-0.02c0,59.8,0,119.2,0,178.81c-13.44,0-26.7,0-40.38,0c0-43.65,0-87.1,0-130.56
			c0.14-1.14,0.28-2.27,0.42-3.41c-0.3-0.05-0.59-0.11-0.89-0.16C820.76,1674.81,820.47,1675.96,820.17,1677.11z"/>
		<path class="st4" d="M403.1,181.36c17.4,5.52,25.05,19.34,32.24,33.52c7.49,14.79,14.84,29.65,22.51,44.99
			c-19.86,0-39.13,0.16-58.39-0.25c-1.95-0.04-4.43-3.27-5.65-5.56c-8.21-15.38-16.01-30.98-24.25-46.34
			c-2.74-5.1-5.99-10.05-9.74-14.45c-4.67-5.49-11.21-6.8-18.56-6.02c0,24.11,0,48.05,0,72.31c-18.07,0-35.81,0-53.82,0
			c0-59.39,0-118.79,0-178.7c1.89,0,3.67,0,5.45,0c27.17,0,54.34-0.42,81.49,0.18c12.91,0.29,25.85,2,38.63,4.03
			c12.34,1.96,26.55,17.43,28.87,30.26c2.02,11.17,2.91,22.42-0.99,33.37c-5.58,15.66-16.58,25.7-32.56,30.32
			C406.79,179.45,405.38,180.32,403.1,181.36z M341.23,154.52c12.93-1.32,25.27-2.32,37.52-3.94c5.92-0.78,10.72-7.17,11.11-13.77
			c0.48-8.12-2.61-14.82-8.41-17.02c-2.26-0.86-4.7-1.69-7.08-1.73c-11.04-0.18-22.09-0.08-33.14-0.08
			C341.23,129.44,341.23,141.07,341.23,154.52z"/>
		<path class="st4" d="M1649.67,181.37c16.76,5.42,24.68,18.76,31.82,32.72c7.66,14.99,15.08,30.11,22.91,45.78
			c-14.18,0-27.76,0-41.34,0c-5.16,0-10.34-0.17-15.49,0.06c-3.06,0.14-4.76-0.94-6.16-3.67c-9.22-17.95-18.69-35.77-27.89-53.72
			c-6.43-12.53-15.9-16.59-25.79-15.1c0,23.89,0,47.83,0,72.1c-18.06,0-35.78,0-53.76,0c0-59.39,0-118.77,0-178.69
			c1.55,0,3.17,0,4.79,0c27.99,0,55.99-0.47,83.96,0.2c13.99,0.33,28.39-0.23,41.67,5.84c14.86,6.8,22.5,18.68,24.84,34.65
			c1.61,11.01,0.97,21.51-3.85,31.64c-6.79,14.25-18.08,22.84-33.21,26.7C1651.57,180.04,1651.06,180.53,1649.67,181.37z
			 M1587.67,153.28c13.61,0.05,26.8,1.05,39.59-3.43c4.78-1.67,8.87-7.89,9.04-14.29c0.21-7.6-2.98-13.66-8.29-15.64
			c-13.16-4.88-26.74-2.12-40.34-3.04C1587.67,129.35,1587.67,140.94,1587.67,153.28z"/>
		<path class="st4" d="M1590.87,1147.91c0-11.81,0-23.61,0-35.69c12.45,0,24.54,0,36.96,0c0,28.13,0,56.38,0,85.24
			c-1.51,0-3.11,0-4.71,0c-22.5,0-45.01-0.11-67.51,0.12c-3.33,0.03-5.34-1.2-6.77-3.61c-7.95-13.43-16.27-26.71-20.59-41.93
			c-3.28-11.55-5.34-23.28-5.09-35.36c0.14-6.97-0.51-13.99,0.04-20.92c1.65-20.7,7.52-39.62,22.75-54.93
			c14.38-14.45,31.82-21.59,51.63-23.9c18.33-2.13,36.51-1.91,54.26,4c22.14,7.38,38.37,21.6,47.94,42.81
			c4.71,10.43,7.12,21.68,7.38,33.28c0.14,6.11,1.31,12.27,0.81,18.31c-1.26,15.12-0.46,30.62-7.07,44.91
			c-5.9,12.77-15.24,22.26-27.72,28.59c-4.02,2.04-8.47,3.26-12.48,5.32c-3.1,1.59-4.14-0.36-4.49-2.37
			c-2.67-15.16-5.12-30.36-7.68-45.55c-0.24-1.41-0.69-2.78-1.02-4.06c3.42-2.14,7.07-4.13,10.38-6.57c6.1-4.5,9.06-11.1,9.99-18.27
			c2.24-17.26-3.09-33.85-23.15-41.55c-11.53-4.42-23.46-5.54-35.5-4.7c-10.26,0.72-20.76,1.31-29.95,7.06
			c-10.52,6.59-15.91,16.41-17.09,28.4c-1.39,14.16,2.53,27.24,10.12,39.15c1,1.56,3.4,2.9,5.28,3.09
			c4.12,0.42,8.31,0.04,12.48-0.01C1590.35,1148.49,1590.61,1148.2,1590.87,1147.91z"/>
		<path class="st4" d="M1613.48,646.66c-14.7,1.51-28.86-1.52-42.12-7c-18.63-7.7-32.2-21.3-40.48-39.94
			c-5.38-12.12-7.58-24.74-7.87-37.99c-0.35-16.28,0.58-32.26,6.18-47.7c5.2-14.34,13.78-25.84,26.13-35.25
			c21.38-16.3,45.86-18.13,70.93-16.68c21.9,1.26,42.11,8.05,57.88,24.41c12.71,13.19,19.86,29.09,22,47.25
			c0.71,6.01,1.94,12.05,1.85,18.06c-0.4,26.53-4.51,51.94-24.89,71.54c-10.1,9.72-21.91,16.73-35.7,19.57
			c-11.14,2.3-22.49,3.58-33.75,5.31C1613.59,647.71,1613.54,647.18,1613.48,646.66z M1614.84,516.3c-8.76,1.01-15.96,1-22.69,2.77
			c-21.88,5.75-31.91,25.16-26.49,45.31c3.55,13.19,12.08,20.92,25.23,24.61c14.3,4.02,28.47,3,42.78,0.91
			c19.22-2.8,28.22-11.81,31.52-31.01c3.31-19.24-7.86-34.45-22.78-38.09C1632.87,518.48,1622.98,517.59,1614.84,516.3z"/>
		<path class="st4" d="M1530.28,953.94c-1.72-5.5-4.03-10.89-5.01-16.51c-1.27-7.34-1.61-14.86-2.13-22.32
			c-1.03-14.76,0.66-29.23,4.98-43.4c6.04-19.8,18.7-34.37,36.43-44.31c11.63-6.52,24.67-9.6,37.98-10.34
			c17.98-0.99,36.02-0.48,53.05,6.03c20.54,7.85,35.95,21.67,44.47,42.35c4.77,11.58,6.41,23.73,7.34,36.24
			c0.92,12.29-0.17,24.31-2.55,36.09c-3.34,16.55-10.84,31.58-23.96,42.55c-7.36,6.15-16.06,11.16-24.9,14.97
			c-15.6,6.72-32.39,7.07-49.15,6.28c-6.86-0.32-13.47-1.56-20.24-3.16c-7.89-1.87-15.41-3.97-22.52-7.73
			c-0.36-0.23-0.72-0.47-1.08-0.7c-1.31-0.8-2.62-1.6-3.93-2.4c-0.36-0.22-0.72-0.43-1.08-0.65c-0.64-0.42-1.27-0.85-1.91-1.27
			c-0.38-0.24-0.75-0.49-1.13-0.73c-10.16-8.26-18.79-17.72-23.83-30.04C1530.84,954.56,1530.56,954.25,1530.28,953.94z
			 M1610.12,871.42c-5.35,0.84-12.98,1.29-20.18,3.31c-20.06,5.63-29.86,25.39-24.15,45.07c3.76,12.96,11.94,20.99,25.26,24.25
			c15.05,3.67,30.08,3.99,45.05,0.52c11.37-2.63,21.68-7.68,26.46-19.32c2.9-7.06,3.82-14.39,2.83-22.39
			c-1.52-12.19-7.72-20.23-18.11-25.47C1636.3,871.83,1624.17,872.54,1610.12,871.42z"/>
		<path d="M1169.84,1723.96c0.05-15.78,0.11-31.56,0.14-47.34c0.02-15.74,0.01-31.48,0.01-47.46c15.59,0,30.82,0,46.05,0
			c0.25,0.28,0.5,0.56,0.75,0.83c0.05,27.33,0.14,54.66,0.14,81.99c0,31.66-0.09,63.33-0.14,94.99c-0.25,0.28-0.5,0.55-0.75,0.83
			c-14.63,0.06-29.26,0.03-43.89,0.24c-4.21,0.06-4.71-3.38-6.2-5.76c-8.71-13.92-17.37-27.88-25.88-41.92
			c-9.75-16.09-19.34-32.28-29-48.42c-0.39-0.22-0.78-0.45-1.17-0.67c-0.07,30.3-0.13,60.61-0.2,90.91c0,1.8,0,3.59,0,5.59
			c-15.7,0-30.96,0-46.51,0c0-59.4,0-118.77,0-178.53c1.04-0.08,2.31-0.26,3.58-0.26c12.99-0.02,25.98,0.06,38.97-0.07
			c2.64-0.03,3.95,0.83,5.35,3.14c18.51,30.41,37.19,60.72,55.83,91.05c0.43,0.7,0.95,1.35,1.43,2.03c0.33,0.59,0.67,1.17,1.71,3.01
			C1169.93,1725.76,1169.89,1724.86,1169.84,1723.96z"/>
		<path class="st4" d="M1415.78,262.75c-11.69,0.86-23.93-0.71-35.83-4.54c-17.06-5.49-30.32-16.02-39.89-31.14
			c-7.02-11.08-11.33-23.17-12.94-36.19c-0.8-6.47-2.14-12.99-1.89-19.44c0.63-16.5,1.96-33.19,9.38-48.17
			c9.62-19.41,24.22-33.99,45.72-40.28c14.24-4.17,28.58-6.01,43.59-4.39c11.77,1.27,23.32,2.67,34.25,7.28
			c21.29,9,34.86,24.81,42.09,46.76c5.5,16.7,5.59,33.79,4.65,50.83c-1.1,19.8-7.05,38.26-20.68,53.41
			c-8.78,9.77-19.54,16.62-31.96,20.98C1440.67,261.93,1428.78,263.33,1415.78,262.75z M1378.28,169.3
			c1.13,8.19,1.97,15.01,3.02,21.79c2.6,16.74,15.85,32,37.78,30.12c11.86-1.02,25.71-8.89,28.79-21.36
			c2.16-8.75,3.26-17.83,4.06-26.83c0.51-5.68-0.18-11.51-0.7-17.24c-1.92-21.28-13.3-35.04-35.23-36
			c-16.11-0.7-28.65,9.43-32.72,23.7C1380.78,152.23,1379.76,161.41,1378.28,169.3z"/>
		<path class="st4" d="M179.76,1425.14c-23.44-0.88-45.93-5.92-64.45-22.4c-13.41-11.93-21.39-27.15-24.21-44.6
			c-1.86-11.49-2.95-23.45-1.98-35c2.92-34.66,19.39-60.6,53.07-72.64c14.48-5.18,30-7.22,45.68-4.64c4.85,0.8,9.85,0.69,14.77,1.1
			c27.84,2.33,56.44,21.45,65.74,50.67c3.76,11.81,5.55,23.74,5.34,35.83c-0.3,16.92-1.86,33.89-10.06,49.25
			c-9.1,17.04-23.4,28.3-41.18,35.22C208.95,1423.2,194.68,1424.66,179.76,1425.14z M180.51,1297.56c-0.08,0.44-0.16,0.88-0.24,1.32
			c-3,0-6-0.12-8.99,0.02c-16.3,0.75-34.81,6.82-39.53,27.6c-1.92,8.44-1.49,16.8,2.74,24.66c8.03,14.96,22.4,18.31,37.37,19.58
			c8.5,0.72,17.19-0.04,25.73-0.85c9.67-0.91,18.69-3.68,25.79-11.12c7.37-7.72,8.8-16.89,8.66-27.08
			c-0.19-13.27-9.36-26.06-20.47-28.65C201.34,1300.65,190.87,1299.34,180.51,1297.56z"/>
		<path class="st4" d="M380.13,1737c-0.05,11.79-0.12,23.57-0.14,35.36c-0.02,11.74-0.01,23.49-0.01,35.47c-16.62,0-32.84,0-49.07,0
			c-0.27-0.28-0.53-0.57-0.8-0.85c-0.05-34-0.12-67.99-0.13-101.99c0-25,0.08-49.99,0.13-74.99c0.27-0.28,0.53-0.57,0.8-0.85
			c29.64-0.03,59.29-0.37,88.92,0.11c9.23,0.15,18.72,1.55,27.55,4.18c12.76,3.8,21.14,13.26,24.8,25.96
			c5.46,18.97,4.64,37.36-8.33,53.56c-5.84,7.28-13.44,12.18-22.5,14.68c-1.1,0.3-2.22,0.55-3.31,0.9
			c-0.27,0.09-0.44,0.49-0.91,1.05c14.35,3.45,21.15,14.9,27.08,26.49c8.38,16.38,15.67,33.32,23.4,50.03
			c0.19,0.41,0.16,0.93,0.31,1.89c-14.59,0-29.05-0.68-43.41,0.24c-9.48,0.61-14.34-2.25-17.95-11.24
			c-5.67-14.13-13.05-27.58-19.72-41.3c-1.16-2.39-2.51-4.68-3.64-7.08c-4.46-9.5-11.41-14.47-22.29-12.45
			C380.66,1736.44,380.4,1736.72,380.13,1737z M380.94,1700.84c10.7-0.59,21.49-0.5,32.07-1.99c9.21-1.29,12.37-7.34,11.93-18.97
			c-0.27-7.26-4.81-12.76-12.78-13.56c-10.5-1.05-21.1-1.1-32.05-1.6c0,12.33,0,23.78,0,35.23
			C380.38,1700.25,380.66,1700.55,380.94,1700.84z"/>
		<path class="st4" d="M490.65,1724.87c0.55-26.69,3.69-47.67,16.13-66.21c12.87-19.18,31.27-28.87,53.89-31.79
			c13.27-1.71,26.42-0.71,39.13,2.33c28.1,6.73,45.46,24.82,53.34,52.67c3.78,13.38,5.07,26.94,4.61,40.57
			c-0.63,18.65-3.06,37.1-13.34,53.47c-13.55,21.59-32.92,33.12-58.49,34.09c-5.1,0.19-10.19,0.85-15.28,0.84
			c-35.34-0.04-61.28-17.82-73.6-51.83c-1.16-3.19-2.39-6.43-2.92-9.75C492.55,1739.56,491.33,1729.78,490.65,1724.87z
			 M539.75,1719.4c1.57,9.41,1.88,19.52,5.09,28.6c5.58,15.82,15.68,21.46,32.84,21.03c13.01-0.33,25.22-9.96,27.08-22.84
			c1.8-12.46,2.98-25.14,2.88-37.71c-0.06-7.55-2.14-15.44-4.96-22.52c-5.32-13.35-22.2-21.65-35.79-17.78
			c-11.98,3.41-19.87,11.84-22.76,23.97C542.05,1700.87,541.23,1709.9,539.75,1719.4z"/>
		<path class="st4" d="M778.7,197.87c1.92,8.68,3.69,17.07,10.72,22.95c11.06,9.27,29.96,10.8,40.44-2.17
			c6.7-8.29,3.23-18.8-5.21-22.67c-9.34-4.28-19.41-7-29.26-10.07c-15.83-4.94-32.18-8.69-45.03-20.22
			c-8.09-7.26-13.49-15.88-15.38-26.93c-3.04-17.76,2.66-32.37,15.19-44.42c9.2-8.85,20.96-12.87,33.47-14.43
			c7.65-0.96,15.39-2.12,23.05-1.87c15.66,0.51,31.24,1.56,45.83,8.69c15.43,7.54,26.76,27.79,26.41,44.6
			c-5.97,0.51-11.96,1.14-17.97,1.51c-7.23,0.44-14.48,0.62-21.73,0.96c-3.37,0.16-7.46,1.65-9.9,0.24
			c-2.01-1.16-1.91-5.76-3.02-8.73c-3.22-8.57-11.34-13.71-20.4-13.46c-3.33,0.09-6.73-0.41-9.97,0.13
			c-6.57,1.1-11.81,6.88-11.97,12.52c-0.15,5.23,4.78,10.51,11.5,12.37c16.76,4.65,33.68,8.83,50.23,14.14
			c14.26,4.58,26.63,12.58,33.81,26.37c13.61,26.12,2.06,61.64-24.2,75.32c-9.99,5.2-20.49,8.31-31.84,9.32
			c-19.34,1.71-38.47,1.69-57.09-4.44c-13.58-4.47-23.57-13.7-29.73-26.34c-3.83-7.86-6.19-16.5-8.57-24.97
			c-1.44-5.11,0.2-6.24,5.55-6.44c14.07-0.53,28.12-1.29,42.18-1.95C776.65,197.83,777.48,197.87,778.7,197.87z"/>
		<path class="st4" d="M211.23,1599.9c-0.43-7.96-0.73-15.7-1.29-23.42c-0.54-7.54-1.25-15.07-2.07-22.58
			c-0.37-3.37,0.97-4.57,4.21-4.96c7.59-0.92,14.33-3.77,19.54-9.66c5.61-6.35,6.69-13.88,6.48-22.02
			c-0.16-6.15-1.28-11.6-5.43-16.43c-6.21-7.23-21.33-7.45-26.41,2.9c-3.5,7.14-6.18,14.82-8.15,22.53
			c-4.18,16.31-8.43,32.54-17.79,46.82c-20.14,30.73-64.29,26.65-81.37-4.14c-5.19-9.34-8.4-19.29-8.97-29.97
			c-0.53-10.08-1.64-20.24-0.89-30.24c1.39-18.61,6.23-36.13,21.97-48.37c8.88-6.91,19.4-9.63,30.74-11.64
			c1.12,17.1,2.22,33.81,3.31,50.48c-2.97,0.97-5.57,1.83-8.18,2.68c-14.21,4.6-18.62,23.84-12.24,35.32
			c3.04,5.48,7.74,7.67,13.76,6.74c5.17-0.8,7.14-4.88,8.43-9.34c5.02-17.37,9.44-34.95,15.17-52.09
			c4.96-14.85,13.52-27.38,28.4-34.45c10.93-5.19,22.28-5.11,33.8-3.09c20.9,3.66,34.85,16.09,42.86,35.26
			c3.98,9.53,6.04,19.64,5.86,30.12c-0.14,8.7-0.01,17.4,0.08,26.1c0.34,32.81-21.81,58.93-53.95,63.41
			C216.51,1600.21,213.86,1599.9,211.23,1599.9z"/>
		<path class="st4" d="M270.6,369.99c-9.36,2.77-19,5.62-29.28,8.67c0,3.62,0,7.57,0,11.52c0,15,0.06,30-0.04,44.99
			c-0.02,3.38,0.44,5.21,4.59,5.96c7.5,1.36,14.81,3.79,22.13,6.02c1.17,0.36,2.77,2.01,2.78,3.08c0.17,17.47,0.12,34.94,0.12,53.06
			c-6.11-2.22-11.66-4.19-17.18-6.24c-9.07-3.36-18.11-6.81-27.19-10.13c-8.85-3.24-17.75-6.35-26.61-9.55
			c-8.71-3.15-17.4-6.34-26.09-9.53c-9.31-3.41-18.61-6.87-27.94-10.26c-9.03-3.28-18.08-6.52-27.13-9.74
			c-7.83-2.78-15.75-5.33-23.46-8.42c-1.54-0.62-3.24-3.21-3.26-4.91c-0.24-17.33-0.02-34.66-0.26-51.99
			c-0.05-3.33,1.72-4.22,4.01-5.08c11.16-4.17,22.32-8.32,33.52-12.39c21.9-7.96,43.83-15.84,65.73-23.79
			c25.07-9.1,50.13-18.24,75.56-27.49C270.6,332.53,270.6,350.94,270.6,369.99z M139.91,408.33c-0.01,0.37-0.02,0.75-0.03,1.12
			c20.82,6.13,41.64,12.26,62.55,18.41c0-13.04,0-25.41,0-38.23C181.31,395.95,160.61,402.14,139.91,408.33z"/>
		<path class="st4" d="M270.9,259.74c-19.28,0-37.92,0-56.44,0c-2.5-9.08-4.83-18.05-7.56-26.9c-0.35-1.14-2.71-2.34-4.15-2.36
			c-17.99-0.16-35.99-0.02-53.98-0.18c-3.21-0.03-4.23,1.44-4.92,4.11c-1.95,7.52-3.92,15.03-6.2,22.45
			c-0.38,1.24-2.29,2.87-3.51,2.88c-17.14,0.19-34.29,0.13-52.18,0.13c2.19-6.57,4.11-12.72,6.29-18.78
			c3.84-10.67,7.82-21.29,11.77-31.92c7.05-18.99,14.16-37.97,21.16-56.98c4.69-12.75,9.25-25.54,13.83-38.33
			c3.68-10.28,7.23-20.62,11.09-30.84c0.4-1.05,2.47-2.07,3.77-2.08c17.83-0.14,35.65-0.14,53.48,0.02c1.17,0.01,2.97,1.4,3.39,2.54
			c9.49,26.11,18.78,52.29,28.21,78.42c4.35,12.05,8.96,24.01,13.38,36.04C255.82,218.41,263.27,238.87,270.9,259.74z
			 M195.11,191.52c-6.28-20.95-12.43-41.45-18.57-61.96c-0.45,0.06-0.9,0.13-1.36,0.19c-6.05,20.48-12.09,40.95-18.24,61.77
			C169.83,191.52,182.1,191.52,195.11,191.52z"/>
		<path class="st4" d="M241.32,831.69c0,7.3,0,14.95,0,22.59c0,11.17,0.14,22.33-0.07,33.49c-0.07,3.77,0.93,5.4,4.89,6.3
			c8.27,1.88,16.35,4.58,24.62,6.97c0,17.9,0,35.7,0,54.18c-3.42-0.96-6.69-1.66-9.81-2.77c-13.14-4.68-26.26-9.43-39.35-14.26
			c-15.64-5.77-31.19-11.76-46.86-17.46c-12.47-4.53-25.1-8.62-37.56-13.16c-12.18-4.44-24.24-9.19-36.34-13.84
			c-2.91-1.12-7.01-1.59-8.33-3.73c-1.51-2.45-0.6-6.43-0.61-9.75c-0.03-14.66,0.1-29.33-0.1-43.99c-0.05-3.48,0.91-5.03,4.31-6.25
			c37.22-13.35,74.38-26.88,111.53-40.43c20.49-7.48,40.93-15.11,61.41-22.64c0.42-0.16,0.98,0.06,1.66,0.11
			c0,18.47,0,36.93,0,55.92C261.18,825.81,251.51,828.67,241.32,831.69z M139.53,861.25c0.06,0.33,0.13,0.65,0.19,0.98
			c20.82,6.2,41.64,12.4,62.8,18.7c0-13,0-25.39,0-38.28C181.29,848.91,160.41,855.08,139.53,861.25z"/>
		<path class="st4" d="M270.63,1662.98c-8.68,2.57-17.32,5.31-26.09,7.6c-2.75,0.72-3.28,1.94-3.27,4.42
			c0.07,17.99,0.12,35.98-0.03,53.98c-0.03,3.53,1.76,4.32,4.62,5.06c8.31,2.13,16.54,4.55,24.87,6.87c0,18.22,0,36.17,0,54.85
			c-59.74-21.78-119.14-43.44-178.86-65.21c0-18.89-0.06-37.7,0.15-56.5c0.01-1.11,2.01-2.7,3.4-3.23
			c11.57-4.4,23.22-8.57,34.83-12.87c21.37-7.91,42.7-15.95,64.11-23.77c18.68-6.82,37.45-13.39,56.16-20.09
			c6.6-2.36,13.17-4.82,20.1-7.36C270.63,1625.53,270.63,1643.94,270.63,1662.98z M139.57,1701.31c0.08,0.34,0.16,0.67,0.23,1.01
			c20.82,6.2,41.64,12.4,62.66,18.66c0-13.03,0-25.4,0-38.28C181.25,1688.97,160.41,1695.14,139.57,1701.31z"/>
		<path class="st4" d="M155.3,1104.23c-12.65,3.47-20.97,10.85-24.22,23.25c-3.35,12.8,0.7,23.49,10.12,32.15
			c7.44,6.83,16.78,9.7,26.69,10.08c13.85,0.53,27.68,0.72,41.38-2.61c12.65-3.08,22.47-13.56,22.87-29.61
			c0.45-18.07-10.37-28.58-23.92-31.88c-3.43-0.84-6.71-2.3-10.47-3.62c4.75-15.23,9.6-30.73,14.55-46.61
			c23.95,5.73,44.06,16.43,54.46,39.77c6.66,14.94,8.7,30.87,6.17,47.22c-1.4,9.02-2.17,18.15-4.03,27.07
			c-3.2,15.38-12.83,26.54-25.04,35.77c-14.93,11.28-31.69,16.72-50.44,17.97c-15.52,1.03-30.67,0.82-45.74-3.19
			c-23.13-6.16-40.45-19.4-50.58-41.35c-6.69-14.5-8.43-29.88-8.3-45.74c0.15-17.96,3.85-34.71,14.66-49.32
			c10.21-13.81,24.65-21.39,40.99-26.86C148.06,1072.52,151.61,1088.08,155.3,1104.23z"/>
		<path class="st4" d="M1374.78,1629.1c18,0,36.15,0,54.64,0c20.1,59.41,40.23,118.88,60.45,178.64c-17.54,0-34.93,0-52.37,0
			c-2.55-9.59-5.1-19.19-7.77-29.23c-15.05,0-30.17,0-45.29,0c-10.85,0-10.92-0.02-13.88,10.29c-1.79,6.25-3.3,12.57-4.98,19.01
			c-17.09,0-34.06,0-51.19,0C1334.49,1748.28,1354.61,1688.76,1374.78,1629.1z M1419.64,1739.69
			c-5.86-21.03-11.53-41.38-17.21-61.74c-0.47,0.07-0.94,0.13-1.41,0.2c-5.6,20.42-11.2,40.85-16.87,61.54
			C1396.31,1739.69,1407.62,1739.69,1419.64,1739.69z"/>
		<path class="st4" d="M874.27,1807.99c20.19-60,40.17-119.4,60.23-179.02c17.69,0,35-0.05,52.3,0.12c1.08,0.01,2.73,1.52,3.13,2.67
			c12.95,37.73,25.81,75.5,38.62,113.28c6.68,19.69,13.24,39.41,19.84,59.13c0.36,1.08,0.6,2.2,1.04,3.82
			c-16.92,0-33.51,0.03-50.09-0.09c-0.95-0.01-2.49-1.16-2.74-2.06c-2.41-8.85-4.61-17.75-7.04-27.34c-1.85,0-3.95,0-6.04,0
			c-15.5,0-31,0.08-46.5-0.07c-3.03-0.03-4.38,0.85-5.08,3.87c-1.78,7.61-3.85,15.15-6.04,22.65c-0.35,1.2-1.95,2.89-3,2.91
			C906.95,1808.05,891,1807.99,874.27,1807.99z M944.25,1738.94c0.27,0.26,0.54,0.52,0.81,0.77c11.26,0,22.51,0,34.26,0
			c-5.92-21.29-11.71-42.12-17.9-64.4C955.43,1697.48,949.84,1718.21,944.25,1738.94z"/>
		<path d="M1704.76,447.88c-12.56,0-25.01,0-37.87,0c0-26.84,0-53.59,0-80.67c-10.62,0-20.85,0-31.55,0c0,22.91,0,45.82,0,68.95
			c-12.22,0-23.96,0-35.97,0c0-22.97,0-45.77,0-69.12c-24.46,0-48.67,0-73.04,0c0-18.79,0-37.03,0-55.47c59.51,0,118.8,0,178.43,0
			C1704.76,357,1704.76,402.35,1704.76,447.88z"/>
		<path d="M1599.32,1714.97c0-22.63,0-45.26,0-68.34c-24.49,0-48.54,0-72.9,0c0-18.66,0-36.88,0-55.38c59.32,0,118.71,0,178.4,0
			c0,45.31,0,90.69,0,136.31c-12.52,0-24.96,0-38.03,0c0-26.78,0-53.64,0-80.79c-10.72,0-20.8,0-31.36,0c0,22.96,0,45.85,0,69.05
			c-12.08,0-23.69,0-35.3,0C1599.86,1715.54,1599.59,1715.26,1599.32,1714.97z"/>
		<path d="M1526.33,760.18c0-18.93,0-37.02,0-55.45c44.82,0,89.41,0,134.46,0c0-18.91,0-37.49,0-56.37c14.87,0,29.27,0,44,0
			c0,55.7,0,111.42,0,167.43c-14.36,0-28.77,0-43.57,0c0-18.31,0-36.72,0-55.61C1616.11,760.18,1571.4,760.18,1526.33,760.18z"/>
		<path d="M92.22,600.57c14.62,0,28.91,0,43.66,0c0,18.07,0,35.97,0,54.25c45.05,0,89.64,0,134.62,0c0,18.07,0,35.76,0,53.81
			c-44.62,0-89.23,0-134.29,0c0,18.26,0,36.18,0,54.45c-14.85,0-29.25,0-43.99,0C92.22,709.07,92.22,655,92.22,600.57z"/>
		<path d="M1006,259.72c-17.45,0-34.91,0-52.72,0c0-44.87,0-89.47,0-134.53c-18.26,0-36.18,0-54.38,0c0-14.88,0-29.29,0-44.02
			c53.93,0,108.02,0,162.46,0c0,14.28,0,28.69,0,43.55c-17.8,0-35.7,0-54.53,0c0,45.02,0,89.58,0,134.14
			C1006.55,259.15,1006.28,259.43,1006,259.72z"/>
		<path d="M459.95,81.04c13.66-0.06,27.33-0.16,40.99-0.17c40.16-0.02,80.32-0.01,120.82-0.01c0,14.68,0,29.21,0,44.2
			c-17.97,0-35.89,0-54.21,0c0,45.06,0,89.67,0,134.54c-17.99,0-35.56,0-53.49,0c0-44.6,0-89.19,0-134.35c-18.39,0-36.44,0-54.88,0
			c0-14.83,0-29.1,0-43.38C459.44,81.59,459.69,81.32,459.95,81.04z"/>
		<path d="M1177.16,81c17.71,0,35.15,0,53.05,0c0,44.82,0,89.52,0,134.76c28.14,0,55.84,0,83.73,0c0,14.82,0,29.1,0,43.75
			c-45.41,0-90.95,0-136.77,0C1177.16,200.23,1177.16,140.84,1177.16,81z"/>
		<path d="M1526.46,1750.35c59.62,0,118.87,0,178.38,0c0,18.28,0,36.36,0,54.8c-59.3,0-118.66,0-178.38,0
			C1526.46,1787.06,1526.46,1768.87,1526.46,1750.35z"/>
		<path d="M270.69,522.18c0,17.88,0,35.48,0,53.31c-59.47,0-118.74,0-178.4,0c0-17.6,0-35.31,0-53.31
			C151.52,522.18,210.92,522.18,270.69,522.18z"/>
		<path d="M1140.21,258.87c-0.51,0.33-1.01,0.94-1.52,0.95c-17.3,0.05-34.6,0.04-52.19,0.04c0-59.63,0-118.99,0-179
			c2.53,0,5.13,0,7.72,0c13.82,0,27.65-0.03,41.47,0.04c1.51,0.01,3.01,0.62,4.52,0.96c-0.06,1.82-0.16,3.65-0.16,5.47
			c-0.01,43.89-0.02,87.77,0,131.66C1140.05,232.28,1140.15,245.58,1140.21,258.87z"/>
		<path d="M700.43,259.77c-17.97,0-35.44,0-53.22,0c0-59.48,0-118.87,0-178.59c17.53,0,35.25,0,53.22,0
			C700.43,140.61,700.43,199.99,700.43,259.77z"/>
		<path d="M92.29,975.04c59.47,0,118.76,0,178.32,0c0,17.83,0,35.54,0,53.49c-59.39,0-118.66,0-178.32,0
			C92.29,1010.92,92.29,993.21,92.29,975.04z"/>
		<path d="M1249.03,1629.18c16.57,0,32.85,0,49.32,0c0,59.6,0,119.01,0,178.61c-16.46,0-32.74,0-49.32,0
			C1249.03,1748.33,1249.03,1688.93,1249.03,1629.18z"/>
		<path class="st5" d="M920.96,1618.15c6.59-9.29,13.07-17.24,18.18-25.99c4.8-8.23,11.32-10.19,19.98-9.12
			c4.1,0.5,8.36,0.46,12.48-0.01c4.73-0.54,7.54,1.25,10.08,5.15c5.74,8.81,11.94,17.33,17.93,25.98c0.8,1.16,1.47,2.42,2.41,3.99
			c-8.67,0-16.82,0.1-24.97-0.1c-1.3-0.03-2.92-1.11-3.78-2.2c-3.41-4.34-6.7-8.79-9.79-13.36c-1.49-2.21-2.29-2.24-3.8-0.05
			c-3.08,4.48-6.28,8.88-9.67,13.13c-0.96,1.2-2.71,2.43-4.13,2.48C938.06,1618.28,930.23,1618.15,920.96,1618.15z"/>
		<path class="st4" d="M343.79,689.83c-4.34,2.91-8.38,5.61-12.6,8.43c-4.22-6.22-7.36-13.37-16.67-13.3c0,4.55,0,8.65,0,13.1
			c-9.68,0-19.05,0-28.52,0c0-10.55,0-20.96,0-32.17c11.18,0.55,22.1,0.68,32.94,1.75c11.46,1.13,18.18,8.84,22.97,18.6
			C342.42,687.27,342.98,688.27,343.79,689.83z"/>
		<path class="st4" d="M791.56,303.46c0-9.76,0-18.97,0-28.47c10.49,0,20.87,0,32.26,0c-0.64,12-0.25,23.99-2.19,35.6
			c-1.86,11.14-11.12,17.03-20.82,21.52c-0.66,0.31-2.43-0.65-3.02-1.49c-2.3-3.27-4.33-6.73-6.65-10.41
			c5.81-4.24,13.87-6.87,14-16.75C800.62,303.46,796.23,303.46,791.56,303.46z"/>
		<path class="st6" d="M1140.21,258.87c-0.06-13.29-0.15-26.59-0.16-39.88c-0.02-43.89-0.01-87.77,0-131.66
			c0-1.82,0.1-3.65,0.16-5.47c0.61,1.34,1.75,2.67,1.76,4.01c0.09,56.33,0.09,112.66,0,168.99
			C1141.96,256.2,1140.82,257.54,1140.21,258.87z"/>
		<path class="st7" d="M1147.85,1209.93c0.01,2.55,0.03,5.09,0.04,7.64c-0.65-2.53-1.29-5.06-1.94-7.59
			C1146.59,1209.97,1147.22,1209.95,1147.85,1209.93z"/>
		<path class="st8" d="M820.17,1677.11c0.29-1.15,0.59-2.3,0.88-3.45c0.3,0.05,0.59,0.11,0.89,0.16c-0.14,1.14-0.28,2.27-0.42,3.41
			C821.07,1677.19,820.62,1677.15,820.17,1677.11z"/>
		<path class="st9" d="M722.01,1674.99c-0.32-0.73-0.63-1.46-0.95-2.19c0.34-0.1,0.68-0.19,1.03-0.29c0.24,0.9,0.49,1.79,0.73,2.69
			C722.52,1675.25,722.25,1675.18,722.01,1674.99z"/>
		<path class="st10" d="M1169.84,1723.96c0.05,0.9,0.09,1.8,0.22,4.18c-1.05-1.84-1.38-2.42-1.71-3.01
			C1168.84,1724.75,1169.34,1724.36,1169.84,1723.96z"/>
		<path class="st5" d="M1557.99,986.92c0.36,0.22,0.72,0.43,1.08,0.65C1558.71,987.35,1558.35,987.14,1557.99,986.92z"/>
		<path class="st11" d="M1216.79,1630c-0.25-0.28-0.5-0.56-0.75-0.83C1216.29,1629.44,1216.54,1629.72,1216.79,1630z"/>
		<path class="st11" d="M330.92,1629.15c-0.27,0.28-0.53,0.57-0.8,0.85C330.39,1629.71,330.66,1629.43,330.92,1629.15z"/>
		<path class="st12" d="M1590.87,1147.91c-0.26,0.29-0.53,0.58-0.79,0.87C1590.35,1148.49,1590.61,1148.2,1590.87,1147.91z"/>
		<path class="st5" d="M1563,989.97c0.36,0.23,0.72,0.47,1.08,0.7C1563.72,990.44,1563.36,990.2,1563,989.97z"/>
		<path class="st5" d="M1554.95,984.92c0.38,0.24,0.75,0.49,1.13,0.73C1555.7,985.4,1555.33,985.16,1554.95,984.92z"/>
		<path class="st5" d="M1530.28,953.94c0.28,0.31,0.56,0.63,0.84,0.94C1530.84,954.56,1530.56,954.25,1530.28,953.94z"/>
		<path class="st13" d="M1109.88,1711.28c0.39,0.22,0.78,0.45,1.17,0.67C1110.66,1711.73,1110.27,1711.51,1109.88,1711.28z"/>
		<path class="st11" d="M1599.32,1714.97c0.27,0.29,0.54,0.57,0.81,0.86C1599.86,1715.54,1599.59,1715.26,1599.32,1714.97z"/>
		<path class="st7" d="M1264.23,692.9c0.27-0.27,0.55-0.53,0.82-0.8C1264.78,692.37,1264.5,692.63,1264.23,692.9z"/>
		<path class="st10" d="M380.13,1737c0.26-0.28,0.53-0.56,0.79-0.84C380.66,1736.44,380.4,1736.72,380.13,1737z"/>
		<path class="st11" d="M1006,259.72c0.28-0.29,0.55-0.57,0.83-0.86C1006.55,259.15,1006.28,259.43,1006,259.72z"/>
		<path class="st11" d="M459.95,81.04c-0.25,0.28-0.51,0.56-0.76,0.83C459.44,81.59,459.69,81.32,459.95,81.04z"/>
		<path class="st11" d="M330.12,1806.98c0.27,0.28,0.53,0.57,0.8,0.85C330.65,1807.55,330.39,1807.26,330.12,1806.98z"/>
		<path class="st11" d="M1216.03,1807.81c0.25-0.28,0.5-0.55,0.75-0.83C1216.54,1807.26,1216.28,1807.53,1216.03,1807.81z"/>
		<path class="st0" d="M967.71,1074.72c-37.4,0-74.34,0-112.16,0c16.79-135.64,33.55-270.96,50.33-406.53c4,0,7.76,0,12.2,0
			C934.61,803.57,951.15,939.04,967.71,1074.72z"/>
		<path class="st0" d="M553.85,1033.61c-26.32,0-51.89,0-78.09,0c0.84-7.91,1.57-15.46,2.47-22.99c2.21-18.44,4.46-36.88,6.77-55.32
			c2.12-16.95,4.38-33.88,6.5-50.83c1.87-14.97,3.58-29.97,5.47-44.94c2.17-17.27,4.56-34.51,6.67-51.79
			c1.59-13.01,2.86-26.06,4.33-39.09c0.59-5.27,1.51-10.52,1.91-15.8c0.25-3.41,1.95-3.95,4.89-4.04c3.06-0.09,4.67,0.84,5,3.98
			c0.99,9.41,2.02,18.81,3.12,28.2c2.09,17.79,4.22,35.58,6.38,53.37c1.88,15.47,3.79,30.94,5.73,46.41
			c1.69,13.49,3.48,26.98,5.14,40.48c1.66,13.5,3.18,27.01,4.81,40.51c1.84,15.15,3.73,30.28,5.61,45.42
			C551.62,1015.88,552.71,1024.56,553.85,1033.61z"/>
		<path class="st6" d="M1668.91,1278c-0.28,11.47-0.2,22.96-0.97,34.39c-0.54,7.97-5.68,13.42-12.11,14.57
			c-8.88,1.59-15.81-0.92-19.48-8.44c-2.07-4.24-2.94-9.35-3.2-14.12c-0.49-8.93-0.14-17.9-0.14-27.31c11.6,0,23.35,0,35.09,0
			C1668.37,1277.39,1668.64,1277.7,1668.91,1278z"/>
		<path class="st14" d="M1594.64,1465.12c21.08,6.39,42.03,12.75,63.83,19.36c-21.71,6.65-42.54,13.04-63.83,19.57
			C1594.64,1490.98,1594.64,1478.29,1594.64,1465.12z"/>
		<path class="st15" d="M1668.91,1278c-0.27-0.3-0.55-0.61-0.82-0.91C1668.37,1277.39,1668.64,1277.7,1668.91,1278z"/>
		<path class="st6" d="M341.23,154.52c0-13.45,0-25.07,0-36.53c11.05,0,22.1-0.1,33.14,0.08c2.37,0.04,4.81,0.87,7.08,1.73
			c5.8,2.19,8.89,8.9,8.41,17.02c-0.39,6.6-5.19,12.99-11.11,13.77C366.5,152.2,354.16,153.2,341.23,154.52z"/>
		<path class="st6" d="M1587.67,153.28c0-12.34,0-23.94,0-36.39c13.6,0.91,27.18-1.84,40.34,3.04c5.32,1.97,8.5,8.03,8.29,15.64
			c-0.18,6.4-4.26,12.61-9.04,14.29C1614.47,154.33,1601.28,153.33,1587.67,153.28z"/>
		<path class="st6" d="M1614.84,516.3c8.14,1.29,18.03,2.18,27.57,4.51c14.91,3.63,26.09,18.85,22.78,38.09
			c-3.3,19.19-12.3,28.2-31.52,31.01c-14.31,2.09-28.48,3.11-42.78-0.91c-13.15-3.69-21.68-11.42-25.23-24.61
			c-5.42-20.15,4.61-39.56,26.49-45.31C1598.88,517.3,1606.08,517.31,1614.84,516.3z"/>
		<path class="st6" d="M1610.12,871.42c14.05,1.11,26.18,0.41,37.17,5.96c10.39,5.25,16.59,13.28,18.11,25.47
			c1,8,0.07,15.32-2.83,22.39c-4.78,11.65-15.09,16.69-26.46,19.32c-14.97,3.47-30,3.15-45.05-0.52
			c-13.32-3.25-21.5-11.28-25.26-24.25c-5.71-19.68,4.08-39.44,24.15-45.07C1597.14,872.71,1604.77,872.26,1610.12,871.42z"/>
		<path class="st6" d="M1378.28,169.3c1.48-7.88,2.5-17.06,5-25.83c4.07-14.27,16.61-24.4,32.72-23.7
			c21.93,0.96,33.31,14.72,35.23,36c0.52,5.73,1.21,11.56,0.7,17.24c-0.81,9-1.9,18.08-4.06,26.83
			c-3.08,12.47-16.93,20.34-28.79,21.36c-21.92,1.88-35.17-13.38-37.78-30.12C1380.25,184.3,1379.41,177.48,1378.28,169.3z"/>
		<path class="st6" d="M180.51,1297.56c10.36,1.78,20.83,3.09,31.05,5.48c11.11,2.6,20.28,15.39,20.47,28.65
			c0.14,10.19-1.29,19.36-8.66,27.08c-7.09,7.44-16.12,10.21-25.79,11.12c-8.54,0.8-17.23,1.57-25.73,0.85
			c-14.97-1.27-29.34-4.62-37.37-19.58c-4.22-7.87-4.65-16.22-2.74-24.66c4.72-20.78,23.23-26.85,39.53-27.6
			c2.99-0.14,5.99-0.02,8.99-0.02C180.35,1298.44,180.43,1298,180.51,1297.56z"/>
		<path class="st6" d="M380.1,1699.96c0-11.45,0-22.9,0-35.23c10.95,0.5,21.55,0.55,32.05,1.6c7.97,0.8,12.51,6.3,12.78,13.56
			c0.44,11.62-2.72,17.67-11.93,18.97c-10.57,1.48-21.37,1.39-32.07,1.99C380.66,1700.55,380.38,1700.25,380.1,1699.96z"/>
		<path class="st12" d="M380.1,1699.96c0.28,0.3,0.55,0.59,0.83,0.89C380.66,1700.55,380.38,1700.25,380.1,1699.96z"/>
		<path class="st6" d="M539.75,1719.4c1.48-9.5,2.3-18.53,4.38-27.26c2.89-12.13,10.78-20.55,22.76-23.97
			c13.59-3.87,30.47,4.42,35.79,17.78c2.82,7.08,4.9,14.98,4.96,22.52c0.09,12.57-1.08,25.25-2.88,37.71
			c-1.86,12.87-14.07,22.51-27.08,22.84c-17.16,0.44-27.26-5.2-32.84-21.03C541.63,1738.92,541.32,1728.81,539.75,1719.4z"/>
		<path class="st14" d="M139.91,408.33c20.7-6.19,41.4-12.38,62.51-18.69c0,12.81,0,25.18,0,38.23
			c-20.91-6.15-41.73-12.28-62.55-18.41C139.88,409.08,139.89,408.7,139.91,408.33z"/>
		<path class="st14" d="M195.11,191.52c-13,0-25.27,0-38.17,0c6.15-20.81,12.19-41.29,18.24-61.77c0.45-0.06,0.9-0.13,1.36-0.19
			C182.68,150.07,188.83,170.58,195.11,191.52z"/>
		<path class="st14" d="M139.53,861.25c20.88-6.17,41.76-12.34,62.99-18.61c0,12.89,0,25.28,0,38.28
			c-21.16-6.3-41.98-12.5-62.8-18.7C139.65,861.9,139.59,861.58,139.53,861.25z"/>
		<path class="st14" d="M139.57,1701.31c20.84-6.17,41.67-12.33,62.89-18.61c0,12.88,0,25.26,0,38.28
			c-21.02-6.26-41.84-12.46-62.66-18.66C139.73,1701.98,139.65,1701.64,139.57,1701.31z"/>
		<path class="st14" d="M1419.64,1739.69c-12.02,0-23.33,0-35.49,0c5.67-20.69,11.27-41.11,16.87-61.54
			c0.47-0.07,0.94-0.13,1.41-0.2C1408.11,1698.31,1413.78,1718.67,1419.64,1739.69z"/>
		<path class="st14" d="M944.25,1738.94c5.59-20.73,11.18-41.46,17.17-63.63c6.2,22.29,11.99,43.11,17.9,64.4c-11.75,0-23,0-34.26,0
			C944.79,1739.45,944.52,1739.2,944.25,1738.94z"/>
		<path class="st15" d="M944.25,1738.94c0.27,0.26,0.54,0.52,0.81,0.77C944.79,1739.45,944.52,1739.2,944.25,1738.94z"/>
	</g>
</g>
</svg>
